<svg preserveAspectRatio="none" width="100%" height="100%" overflow="visible" style="display: block;" viewBox="0 0 23 18" fill="none" xmlns="http://www.w3.org/2000/svg">
<path id="gamesvg" fill-rule="evenodd" clip-rule="evenodd" d="M16.6233 0C17.4321 0 18.1012 0.476166 18.5906 0.974752C19.1008 1.49449 19.5676 2.19132 19.983 2.95921C20.8174 4.50178 21.5433 6.51569 22.024 8.50473C22.5015 10.4801 22.7642 12.5414 22.5961 14.1634C22.4276 15.7909 21.6169 17.5412 19.8032 17.5412C18.2383 17.5412 16.9923 16.7079 15.9722 15.8622L15.6001 15.5461L15.0793 15.0908L14.6082 14.6871C13.5289 13.7826 12.5685 13.1559 11.3235 13.1559C10.0784 13.1559 9.11807 13.7826 8.03871 14.6871L7.56766 15.0908L7.04686 15.5461L6.67475 15.8622C5.65469 16.7079 4.4086 17.5412 2.84377 17.5412C1.03011 17.5412 0.219469 15.7909 0.0508918 14.1634C-0.117134 12.5414 0.145579 10.4801 0.623041 8.50473C1.10378 6.5157 1.82958 4.50179 2.66405 2.95922C3.07945 2.19132 3.54617 1.49449 4.05635 0.974752C4.54578 0.476155 5.21488 0 6.02367 0C6.57 0 7.10243 0.134681 7.6278 0.295641L8.25528 0.49447C8.35945 0.527398 8.46343 0.559643 8.5673 0.590337C9.48476 0.861447 10.4225 1.09632 11.3235 1.09632C12.2245 1.09632 13.1622 0.861447 14.0797 0.590348L15.0172 0.296973C15.5451 0.135863 16.0831 0 16.6233 0ZM16.6237 2.19296C16.2173 2.19296 15.7932 2.31941 15.3819 2.45867L14.8965 2.62466C14.8172 2.65092 14.739 2.67588 14.6621 2.69862C13.7245 2.97569 12.5423 3.28897 11.3235 3.28897C10.1046 3.28897 8.92248 2.97569 7.98493 2.69863L7.75064 2.62468L7.26533 2.45862C6.85408 2.31926 6.42988 2.19265 6.02367 2.19265C5.58044 2.27785 5.18287 2.83378 4.88332 3.34974L4.71578 3.65043L4.51409 4.02984C3.79175 5.36512 3.12638 7.18837 2.67967 9.03645C2.26183 10.7652 2.05867 12.4199 2.13593 13.653L2.16325 13.9736L2.18413 14.1664L2.21636 14.3952C2.28923 14.8346 2.44722 15.3485 2.84377 15.3485C3.70481 15.3485 4.42214 14.9057 5.31671 14.1707L5.74334 13.8113L6.54839 13.114L6.9141 12.8071C8.04192 11.8831 9.45239 10.9632 11.3235 10.9632C13.1947 10.9632 14.6051 11.8831 15.7329 12.8071L16.0986 13.114L16.9036 13.8113L17.3302 14.1707C18.2248 14.9057 18.9422 15.3485 19.8032 15.3485C20.1638 15.3485 20.3271 14.9238 20.4086 14.5164L20.4486 14.2776L20.4883 13.9299C20.6184 12.674 20.4174 10.8982 19.9674 9.03645C19.5579 7.34238 18.9647 5.66918 18.3122 4.37357L17.9313 3.65052L17.7638 3.34989C17.4643 2.83403 17.0669 2.27819 16.6237 2.19296ZM7.6136 4.38529C9.07711 4.38529 10.2635 5.6124 10.2635 7.1261C10.2635 8.6398 9.07711 9.86691 7.6136 9.86691C6.15009 9.86691 4.96368 8.6398 4.96368 7.1261C4.96368 5.6124 6.15009 4.38529 7.6136 4.38529ZM15.0334 4.38529C15.577 4.38529 16.025 4.80852 16.0862 5.35376L16.0933 5.48162V6.02978H16.6233C17.2087 6.02978 17.6833 6.52062 17.6833 7.1261C17.6833 7.68835 17.2741 8.15172 16.7469 8.21505L16.6233 8.22243H16.0933V8.77059C16.0933 9.37609 15.6188 9.86691 15.0334 9.86691C14.4898 9.86691 14.0418 9.4437 13.9805 8.89845L13.9734 8.77059V8.22243H13.4434C12.858 8.22243 12.3835 7.7316 12.3835 7.1261C12.3835 6.56387 12.7926 6.10049 13.3198 6.03716L13.4434 6.02978H13.9734V5.48162C13.9734 4.87614 14.448 4.38529 15.0334 4.38529ZM7.6136 6.57794C7.3209 6.57794 7.08362 6.82341 7.08362 7.1261C7.08362 7.4288 7.3209 7.67426 7.6136 7.67426C7.9063 7.67426 8.14358 7.4288 8.14358 7.1261C8.14358 6.82341 7.9063 6.57794 7.6136 6.57794Z" fill="var(--fill-0, #CFCFCF)"/>
</svg>
