<svg preserveAspectRatio="none" width="100%" height="100%" overflow="visible" style="display: block;" viewBox="0 0 62 61" fill="none" xmlns="http://www.w3.org/2000/svg">
<g id="Frame 4">
<circle id="Ellipse 2" cx="30.4058" cy="30.4057" r="11.5" transform="rotate(180 30.4058 30.4057)" stroke="var(--stroke-0, #171D2B)" stroke-width="4"/>
<path id="Line 5" d="M30.0781 31.1778L10.2139 32.7321" stroke="var(--stroke-0, #171D2B)" stroke-width="4"/>
<path id="Line 3" d="M46.4632 17.008L30.7291 31.454" stroke="var(--stroke-0, #171D2B)" stroke-width="4"/>
<path id="Ellipse 4" d="M44.2043 16.2284C46.4816 18.47 48.1732 21.2371 49.1301 24.286C50.087 27.3349 50.28 30.5722 49.692 33.7132C49.104 36.8542 47.7532 39.8025 45.7582 42.2989C43.7633 44.7952 41.1855 46.763 38.2515 48.0292C35.3175 49.2954 32.1173 49.8211 28.9324 49.5602C25.7475 49.2992 22.6756 48.2595 19.9869 46.5326C17.2982 44.8057 15.075 42.4445 13.5131 39.6567C11.9511 36.8689 11.0982 33.74 11.0294 30.5452" stroke="var(--stroke-0, #171D2B)" stroke-width="4"/>
<line id="Line 7" x1="26.4211" y1="20.7914" x2="33.9132" y2="39.3351" stroke="var(--stroke-0, #171D2B)" stroke-width="3"/>
</g>
</svg>
