<svg preserveAspectRatio="none" width="100%" height="100%" overflow="visible" style="display: block;" viewBox="0 0 19 24" fill="none" xmlns="http://www.w3.org/2000/svg">
<path id="Vector" d="M9.98105 0.361015C9.90982 0.198468 9.7911 0.0786967 9.65202 0.0273661C9.50956 -0.0239645 9.36031 -0.00257681 9.23141 0.0872518C9.13982 0.151415 9.06181 0.245521 9.01092 0.365293L0.0694519 20.9104C-0.0797988 21.2569 0.018571 21.6932 0.29672 21.8857C0.381522 21.9413 0.476499 21.9755 0.571477 21.9755H6.82305C7.00283 21.9755 7.17921 22.0482 7.32507 22.1851L8.98379 23.7336C9.13643 23.879 9.3196 23.9474 9.49938 23.9474C9.67916 23.9474 9.85894 23.8747 10.015 23.7336L11.6737 22.1851C11.8162 22.0525 11.9959 21.9755 12.1757 21.9755H18.4307C18.7461 21.9755 19.0005 21.6547 19.0005 21.2569C19.0005 21.1371 18.9768 21.0173 18.9293 20.9104L9.98105 0.361015ZM0.751256 21.12L8.95326 2.27308L6.91463 21.1414C6.8841 21.1414 6.85357 21.1243 6.82305 21.1243H0.751256V21.12ZM7.72873 21.4964C7.68124 21.4536 7.62357 21.4322 7.57269 21.3937L9.15678 6.73029V22.8353L7.72873 21.5007V21.4964ZM9.8352 22.831V6.73457L11.4193 21.398C11.3684 21.4365 11.3107 21.4536 11.2633 21.5007L9.8352 22.8353V22.831ZM12.1689 21.12C12.1384 21.12 12.1079 21.1371 12.0773 21.1371L10.0387 2.2688L18.2407 21.12H12.1689Z" fill="var(--fill-0, #CFCFCF)"/>
</svg>
