<svg preserveAspectRatio="none" width="100%" height="100%" overflow="visible" style="display: block;" viewBox="0 0 23 24" fill="none" xmlns="http://www.w3.org/2000/svg">
<path id="spark" d="M11.6192 11.1331C11.6192 11.9076 10.9366 12.5376 10.0986 12.5376C9.25964 12.5376 8.57763 11.9076 8.57763 11.1331C8.57763 10.3596 9.25964 9.73003 10.0986 9.73003C10.9366 9.73003 11.6192 10.3596 11.6192 11.1331ZM12.4191 10.911V11.3544H22.0953V10.911H12.4191ZM11.2581 12.9884L17.6902 18.9248L18.0293 18.6123L11.5972 12.6754L11.2581 12.9884ZM9.85793 24H10.3393V13.2739H9.85793V24ZM7.90598 10.911H0V11.3544H7.90598V10.911ZM10.3393 0H9.85793V9.18868H10.3393V0ZM8.63703 10.349L8.92328 9.99255L2.85894 5.83412L2.76911 5.77217L2.48232 6.12865L8.54627 10.2881L8.63703 10.349ZM18.0441 3.81777L17.6959 3.51085L11.2424 9.74672L11.5906 10.0536L18.0441 3.81777ZM2.97642 18.6334L3.33935 18.9245L8.93963 12.9705L8.5763 12.6799L2.97642 18.6334ZM12.7011 12.618L20.0858 14.5264L20.2151 14.0992L12.83 12.1908L12.7011 12.618ZM3.76488 13.2062L3.93086 13.6228L7.98067 12.2499L7.81469 11.8334L3.76488 13.2062ZM12.5037 10.3534L19.1176 8.23651L18.9597 7.81722L12.3469 9.93416L12.5037 10.3534ZM9.20156 9.2721L9.63812 9.08552L5.92135 1.66477L5.8743 1.57044L5.43775 1.75702L9.15492 9.17813L9.20156 9.2721Z" fill="var(--fill-0, white)"/>
</svg>
