<svg preserveAspectRatio="none" width="100%" height="100%" overflow="visible" style="display: block;" viewBox="0 0 30 30" fill="none" xmlns="http://www.w3.org/2000/svg">
<path id="ai--robustness_1_" d="M15.36 30H14.64V28H15.36V30ZM25.352 25.861L23.938 24.447L24.448 23.937L25.862 25.351L25.352 25.861ZM4.648 25.861L4.139 25.351L5.553 23.937L6.062 24.447L4.648 25.861ZM17.5 25.36C16.427 25.36 15.489 24.765 15 23.887C14.511 24.765 13.574 25.36 12.5 25.36C11.208 25.36 10.095 24.485 9.756 23.266C7.612 23.794 5.641 22.102 5.64 20C5.64 19.592 5.719 19.188 5.874 18.797C4.506 18.03 3.64 16.577 3.64 15C3.64 13.424 4.506 11.97 5.874 11.203C5.719 10.812 5.64 10.408 5.64 10C5.64 7.898 7.598 6.207 9.756 6.733C10.094 5.515 11.208 4.64 12.5 4.64C13.574 4.64 14.511 5.235 15 6.112C15.489 5.235 16.427 4.64 17.5 4.64C18.792 4.64 19.905 5.515 20.243 6.733C22.372 6.213 24.36 7.896 24.36 10C24.36 10.408 24.281 10.811 24.126 11.203C25.494 11.97 26.36 13.423 26.36 15C26.36 16.577 25.494 18.03 24.126 18.797C24.281 19.189 24.36 19.592 24.36 20C24.36 22.102 22.393 23.791 20.243 23.267C19.905 24.485 18.792 25.36 17.5 25.36ZM15.36 22.5C15.36 23.68 16.32 24.64 17.5 24.64C18.571 24.64 19.479 23.833 19.611 22.763C19.625 22.654 19.687 22.557 19.781 22.499C19.876 22.443 19.991 22.432 20.093 22.469C21.931 23.147 23.64 21.754 23.64 20C23.64 19.593 23.537 19.188 23.335 18.797C23.29 18.71 23.283 18.608 23.315 18.514C23.347 18.421 23.416 18.345 23.505 18.305C24.802 17.713 25.639 16.416 25.639 15C25.639 13.584 24.801 12.288 23.505 11.695C23.415 11.654 23.346 11.578 23.315 11.485C23.283 11.392 23.29 11.29 23.336 11.202C23.537 10.811 23.64 10.407 23.64 10C23.64 8.248 21.952 6.852 20.093 7.531C19.99 7.568 19.874 7.558 19.781 7.5C19.687 7.443 19.625 7.346 19.611 7.237C19.479 6.167 18.571 5.36 17.5 5.36C16.32 5.36 15.36 6.32 15.36 7.5V9H14.64V7.5C14.64 6.32 13.68 5.36 12.5 5.36C11.429 5.36 10.521 6.167 10.388 7.238C10.374 7.347 10.312 7.444 10.218 7.501C10.124 7.559 10.009 7.569 9.906 7.532C8.054 6.851 6.36 8.248 6.36 10C6.36 10.408 6.463 10.812 6.664 11.202C6.691 11.254 6.704 11.31 6.704 11.368C6.704 11.408 6.698 11.447 6.684 11.486C6.652 11.579 6.583 11.655 6.493 11.696C5.198 12.288 4.36 13.585 4.36 15C4.36 16.416 5.198 17.713 6.494 18.305C6.584 18.346 6.653 18.421 6.685 18.515C6.698 18.553 6.705 18.592 6.705 18.632C6.705 18.689 6.692 18.745 6.665 18.797C6.462 19.188 6.36 19.593 6.36 20C6.36 21.754 8.069 23.146 9.906 22.469C10.007 22.431 10.124 22.443 10.218 22.499C10.312 22.557 10.375 22.653 10.388 22.763C10.52 23.833 11.429 24.64 12.5 24.64C13.68 24.64 14.64 23.68 14.64 22.5V21H15.36V22.5ZM10.63 20.36C10.537 20.36 10.445 20.324 10.376 20.255L9.746 19.625C9.632 19.511 9.607 19.334 9.687 19.193L10.459 17.823C10.514 17.724 10.612 17.658 10.724 17.643C10.838 17.622 10.948 17.665 11.028 17.746L11.386 18.104L13.246 16.245L13.755 16.755L11.894 18.614L12.255 18.976C12.335 19.055 12.372 19.167 12.357 19.28C12.342 19.391 12.275 19.489 12.177 19.544L10.807 20.314C10.751 20.345 10.69 20.36 10.63 20.36ZM10.448 19.309L10.692 19.553L11.411 19.149L10.854 18.591L10.448 19.309ZM18.019 20.359C17.41 20.359 16.808 20.123 16.359 19.673C15.77 19.083 15.541 18.223 15.748 17.425L12.575 14.252C11.778 14.456 10.916 14.231 10.327 13.64C9.626 12.939 9.442 11.867 9.869 10.972C9.919 10.867 10.018 10.792 10.133 10.772C10.25 10.751 10.366 10.79 10.448 10.873L11.771 12.196C11.886 12.309 12.085 12.308 12.197 12.196C12.314 12.078 12.314 11.887 12.197 11.77L10.874 10.447C10.791 10.364 10.754 10.247 10.773 10.132C10.793 10.017 10.867 9.919 10.973 9.868C11.868 9.442 12.94 9.625 13.641 10.326C14.231 10.916 14.459 11.777 14.252 12.575L17.425 15.747C18.222 15.539 19.082 15.768 19.673 16.358C20.374 17.06 20.558 18.131 20.131 19.026C20.08 19.131 19.982 19.206 19.866 19.225C19.756 19.248 19.634 19.207 19.551 19.125L18.228 17.802C18.111 17.685 17.92 17.685 17.801 17.802C17.685 17.919 17.685 18.111 17.802 18.228L19.125 19.551C19.207 19.634 19.245 19.751 19.225 19.866C19.205 19.981 19.131 20.08 19.026 20.131C18.705 20.285 18.36 20.359 18.019 20.359ZM12.675 13.484C12.769 13.484 12.861 13.521 12.929 13.589L16.41 17.069C16.51 17.169 16.542 17.317 16.493 17.449C16.273 18.043 16.42 18.716 16.868 19.163C17.22 19.517 17.715 19.677 18.186 19.63L17.292 18.737C16.895 18.34 16.895 17.691 17.292 17.293C17.692 16.895 18.339 16.896 18.737 17.292L19.63 18.186C19.68 17.708 19.517 17.22 19.163 16.868C18.715 16.42 18.041 16.272 17.449 16.493C17.317 16.54 17.17 16.509 17.069 16.41L13.589 12.93C13.489 12.831 13.457 12.682 13.506 12.551C13.726 11.957 13.579 11.283 13.131 10.836C12.778 10.483 12.29 10.32 11.812 10.369L12.705 11.263C13.103 11.661 13.103 12.309 12.705 12.707C12.32 13.092 11.645 13.092 11.261 12.707L10.368 11.814C10.318 12.292 10.482 12.78 10.835 13.133C11.283 13.581 11.956 13.728 12.549 13.508C12.59 13.492 12.633 13.484 12.675 13.484ZM30 15.36H28V14.64H30V15.36ZM2 15.36H0V14.64H2V15.36ZM17.371 14.254L16.861 13.745L19.513 11.092C19.595 11.01 19.639 10.903 19.639 10.788C19.639 10.673 19.595 10.566 19.514 10.485C19.35 10.322 19.07 10.322 18.908 10.485L16.257 13.137L15.748 12.628L18.399 9.976C18.833 9.541 19.59 9.541 20.024 9.976C20.241 10.193 20.361 10.481 20.361 10.788C20.361 11.095 20.241 11.384 20.023 11.601L17.371 14.254ZM24.447 6.062L23.937 5.553L25.351 4.139L25.861 4.648L24.447 6.062ZM5.553 6.062L4.139 4.648L4.648 4.139L6.062 5.553L5.553 6.062ZM15.36 2H14.64V0H15.36V2Z" fill="var(--fill-0, #CDCDCD)"/>
</svg>
